<svg xmlns="http://www.w3.org/2000/svg" fill="none" viewBox="44 50 1096.16 236.91">
    <rect x="218.021" y="51.748" width="91.0107" height="218.998" rx="45.5053" transform="rotate(30 218.021 51.748)" fill="url(#paint0_linear_1202_149)"/>
    <rect x="44" y="97.2969" width="91.0107" height="218.947" rx="45.5053" transform="rotate(-30 44 97.2969)" fill="#FB6969"/>
    <rect x="351.73" y="52.9668" width="91.0107" height="217.588" rx="45.5053" transform="rotate(30 351.73 52.9668)" fill="url(#paint1_linear_1202_149)"/>
    <rect x="175.981" y="95.5059" width="91.0107" height="221.014" rx="45.5053" transform="rotate(-30 175.981 95.5059)" fill="url(#paint2_linear_1202_149)"/>
    <path d="M511.75 235L470.5 103.5H507L523.5 168C524.333 171.333 525.083 174.917 525.75 178.75C526.583 182.583 527.333 186 528 189C528.667 192 529.167 194.167 529.5 195.5H531.25C531.917 192.167 532.583 188.75 533.25 185.25C534.083 181.583 534.833 178.167 535.5 175C536.333 171.667 536.917 169.167 537.25 167.5L553 103.5H589.25L605.5 167.75C606.167 170.083 606.833 173 607.5 176.5C608.167 179.833 608.917 183.25 609.75 186.75C610.583 190.083 611.25 193 611.75 195.5H613.25C613.583 193.167 614.083 190.417 614.75 187.25C615.583 184.083 616.333 180.833 617 177.5C617.833 174.167 618.583 171.167 619.25 168.5L635.5 103.5H669L628 235H592.25L577.75 176.25C577.083 173.083 576.25 169.583 575.25 165.75C574.25 161.75 573.333 157.833 572.5 154C571.833 150.167 571.25 146.833 570.75 144H569.25C569.25 145.5 568.917 147.833 568.25 151C567.583 154 566.75 157.667 565.75 162C564.917 166.167 563.833 170.917 562.5 176.25L547.5 235H511.75ZM737.713 238C723.213 238 711.046 235.583 701.213 230.75C691.38 225.75 683.963 218.167 678.963 208C673.963 197.833 671.463 184.917 671.463 169.25C671.463 153.417 673.963 140.5 678.963 130.5C683.963 120.333 691.296 112.833 700.963 108C710.796 103 722.796 100.5 736.963 100.5C750.296 100.5 761.546 102.917 770.713 107.75C779.88 112.417 786.796 119.75 791.463 129.75C796.13 139.583 798.463 152.333 798.463 168V177H706.713C707.046 184.667 708.213 191.167 710.213 196.5C712.38 201.833 715.63 205.833 719.963 208.5C724.463 211 730.38 212.25 737.713 212.25C741.713 212.25 745.296 211.75 748.463 210.75C751.796 209.75 754.63 208.25 756.963 206.25C759.296 204.25 761.13 201.75 762.463 198.75C763.796 195.75 764.463 192.333 764.463 188.5H798.463C798.463 196.833 796.963 204.083 793.963 210.25C790.963 216.417 786.796 221.583 781.463 225.75C776.13 229.75 769.713 232.833 762.213 235C754.88 237 746.713 238 737.713 238ZM707.213 155H762.713C762.713 150 762.046 145.667 760.713 142C759.546 138.333 757.88 135.333 755.713 133C753.546 130.667 750.88 129 747.713 128C744.713 126.833 741.296 126.25 737.463 126.25C731.13 126.25 725.796 127.333 721.463 129.5C717.296 131.5 714.046 134.667 711.713 139C709.546 143.167 708.046 148.5 707.213 155ZM889.959 238C881.459 238 873.626 236.333 866.459 233C859.459 229.5 853.792 224.25 849.459 217.25H847.709L844.959 235H816.459V54.25H851.209V118H852.709C855.376 114.167 858.626 110.917 862.459 108.25C866.292 105.583 870.626 103.667 875.459 102.5C880.292 101.167 885.542 100.5 891.209 100.5C901.542 100.5 910.542 102.917 918.209 107.75C926.042 112.583 932.126 120.083 936.459 130.25C940.792 140.25 942.959 153.167 942.959 169C942.959 184.833 940.792 197.833 936.459 208C932.292 218.167 926.209 225.75 918.209 230.75C910.376 235.583 900.959 238 889.959 238ZM879.209 209.5C886.209 209.5 891.709 208.167 895.709 205.5C899.876 202.667 902.876 198.5 904.709 193C906.542 187.5 907.459 180.583 907.459 172.25V166.5C907.459 158.167 906.542 151.25 904.709 145.75C902.876 140.083 899.876 135.917 895.709 133.25C891.709 130.417 886.209 129 879.209 129C874.209 129 869.959 129.917 866.459 131.75C862.959 133.417 860.042 135.917 857.709 139.25C855.542 142.417 853.876 146.417 852.709 151.25C851.542 156.083 850.959 161.417 850.959 167.25V171.75C850.959 179.583 851.959 186.333 853.959 192C855.959 197.667 859.042 202 863.209 205C867.376 208 872.709 209.5 879.209 209.5Z" fill="#3461B8"/>
    <path d="M982.559 282C976.725 282 971.225 280.75 966.059 278.25C960.892 275.917 956.725 272.417 953.559 267.75C950.392 263.083 948.809 257.5 948.809 251C948.809 243.667 950.892 237.833 955.059 233.5C959.392 229 964.225 225.667 969.559 223.5C965.725 221.333 962.559 218.5 960.059 215C957.725 211.5 956.559 207.417 956.559 202.75C956.559 196.25 958.892 191 963.559 187C968.392 182.833 973.892 180.167 980.059 179C973.892 175.167 969.059 170.333 965.559 164.5C962.225 158.5 960.559 151.833 960.559 144.5C960.559 135 962.892 127 967.559 120.5C972.392 114 979.225 109.083 988.059 105.75C997.059 102.25 1007.64 100.5 1019.81 100.5C1024.64 100.5 1029.14 100.75 1033.31 101.25C1037.64 101.75 1041.56 102.583 1045.06 103.75C1051.23 100.083 1055.39 96.0833 1057.56 91.75C1059.89 87.25 1061.14 83.6667 1061.31 81H1093.56C1093.56 87.1667 1092.39 92.5 1090.06 97C1087.89 101.5 1084.73 105.25 1080.56 108.25C1076.39 111.083 1071.39 113.167 1065.56 114.5C1069.89 118.167 1073.23 122.583 1075.56 127.75C1077.89 132.917 1079.06 138.5 1079.06 144.5C1079.06 153.833 1076.81 161.833 1072.31 168.5C1067.81 175 1061.39 180 1053.06 183.5C1044.89 187 1035.06 188.75 1023.56 188.75H1003.56C999.559 188.75 996.559 189.5 994.559 191C992.559 192.333 991.559 194.333 991.559 197C991.559 199.167 992.392 201.083 994.059 202.75C995.892 204.25 998.809 205 1002.81 205H1057.56C1068.56 205 1077.31 208.417 1083.81 215.25C1090.48 221.917 1093.81 230.5 1093.81 241C1093.81 249 1091.73 256.083 1087.56 262.25C1083.39 268.417 1077.64 273.25 1070.31 276.75C1062.98 280.25 1054.56 282 1045.06 282H982.559ZM997.059 258.75H1043.31C1046.31 258.75 1048.98 258.167 1051.31 257C1053.64 256 1055.48 254.5 1056.81 252.5C1058.14 250.667 1058.81 248.5 1058.81 246C1058.81 241.667 1057.48 238.417 1054.81 236.25C1052.14 234.083 1048.81 233 1044.81 233H997.059C993.059 233 989.725 234.167 987.059 236.5C984.559 238.833 983.309 241.917 983.309 245.75C983.309 249.583 984.559 252.667 987.059 255C989.725 257.5 993.059 258.75 997.059 258.75ZM1019.81 166.25C1027.98 166.25 1034.14 164.417 1038.31 160.75C1042.64 156.917 1044.81 151.5 1044.81 144.5C1044.81 137.5 1042.64 132.167 1038.31 128.5C1034.14 124.667 1027.98 122.75 1019.81 122.75C1011.81 122.75 1005.64 124.667 1001.31 128.5C997.142 132.167 995.059 137.5 995.059 144.5C995.059 149 995.975 152.917 997.809 156.25C999.642 159.583 1002.39 162.083 1006.06 163.75C1009.73 165.417 1014.31 166.25 1019.81 166.25ZM1105.41 84.25V54.25H1140.16V84.25H1105.41ZM1105.41 235V103.5H1140.16V235H1105.41Z" fill="#cccccc"/>
    <defs>
        <linearGradient id="paint0_linear_1202_149" x1="280.556" y1="212.151" x2="273.708" y2="19.6673" gradientUnits="userSpaceOnUse">
            <stop stop-color="#A02C2C"/>
            <stop offset="0.9999" stop-color="#FB6969"/>
            <stop offset="1" stop-color="#FB6969"/>
        </linearGradient>
        <linearGradient id="paint1_linear_1202_149" x1="397.236" y1="52.9668" x2="397.236" y2="270.555" gradientUnits="userSpaceOnUse">
            <stop offset="0.0914853" stop-color="#9195F8"/>
            <stop offset="0.918323" stop-color="#1C23C7"/>
        </linearGradient>
        <linearGradient id="paint2_linear_1202_149" x1="221.487" y1="95.5059" x2="221.487" y2="316.52" gradientUnits="userSpaceOnUse">
            <stop stop-color="#75F98F"/>
            <stop offset="1" stop-color="#3A849B"/>
        </linearGradient>
    </defs>
</svg>
