<svg width="187" height="188" viewBox="0 0 187 188" fill="none" xmlns="http://www.w3.org/2000/svg">
<mask id="mask0_201_261" style="mask-type:luminance" maskUnits="userSpaceOnUse" x="3" y="46" width="181" height="95">
<path d="M3.30371 46.9463H183.985V140.723H3.30371V46.9463Z" fill="white"/>
</mask>
<g mask="url(#mask0_201_261)">
<mask id="mask1_201_261" style="mask-type:luminance" maskUnits="userSpaceOnUse" x="3" y="46" width="181" height="95">
<path d="M3.30359 93.8497C3.30359 119.73 43.7512 140.712 93.6418 140.712C143.532 140.712 183.98 119.73 183.98 93.8497C183.98 67.9692 143.532 46.9883 93.6418 46.9883C43.7512 46.9883 3.30359 67.9702 3.30359 93.8497Z" fill="white"/>
</mask>
<g mask="url(#mask1_201_261)">
<mask id="mask2_201_261" style="mask-type:luminance" maskUnits="userSpaceOnUse" x="3" y="46" width="181" height="95">
<path d="M3.30347 93.8488C3.30347 119.729 43.751 140.711 93.6416 140.711C143.532 140.711 183.98 119.729 183.98 93.8488C183.98 67.9683 143.532 46.9873 93.6416 46.9873C43.751 46.9873 3.30347 67.9692 3.30347 93.8488Z" fill="white"/>
</mask>
<g mask="url(#mask2_201_261)">
<path d="M3.30347 46.9873V140.711H183.98V46.9873H3.30347Z" fill="url(#paint0_radial_201_261)"/>
</g>
</g>
</g>
<path d="M93.6419 137.232C141.585 137.232 180.452 117.81 180.452 93.8502C180.452 69.8912 141.585 50.4688 93.6419 50.4688C45.699 50.4688 6.83276 69.8912 6.83276 93.8502C6.83276 117.81 45.699 137.232 93.6419 137.232Z" fill="#777BB3"/>
<path d="M52.384 99.2261C56.3265 99.2261 59.2691 98.5095 61.1308 97.0967C62.9731 95.698 64.2455 93.2747 64.9125 89.8943C65.5344 86.7345 65.2973 84.5284 64.2085 83.3381C63.0955 82.1221 60.6887 81.5051 57.0552 81.5051H50.7555L47.2629 99.2266H52.384V99.2261ZM31.7795 121.057C31.4871 121.057 31.2097 120.928 31.0236 120.705C30.9303 120.593 30.8657 120.468 30.8298 120.328C30.7938 120.188 30.7899 120.047 30.8176 119.906L40.0736 72.9443C40.0843 72.8894 40.0998 72.8364 40.1202 72.7845C40.1402 72.7325 40.1644 72.6824 40.1936 72.6343C40.2223 72.5867 40.2553 72.5415 40.2917 72.4993C40.3287 72.457 40.369 72.4181 40.4122 72.3832C40.4559 72.3477 40.5021 72.3161 40.5517 72.2884C40.6007 72.2612 40.6517 72.2379 40.7047 72.219C40.7576 72.2005 40.8121 72.1859 40.8679 72.1767C40.9233 72.167 40.9797 72.1621 41.036 72.1621H60.9851C67.2547 72.1621 71.921 73.8377 74.8545 77.152C77.803 80.4804 78.7139 85.1337 77.5605 90.9811C77.0912 93.3636 76.2843 95.5761 75.1625 97.5578C74.0383 99.5409 72.5536 101.376 70.7483 103.013C68.5863 105.007 66.1397 106.454 63.4827 107.305C60.8675 108.145 57.5099 108.572 53.5014 108.572H45.4235L43.1168 120.275C43.1056 120.329 43.0906 120.383 43.0702 120.435C43.0503 120.487 43.026 120.537 42.9968 120.585C42.9682 120.633 42.9351 120.678 42.8987 120.72C42.8618 120.762 42.8214 120.801 42.7782 120.836C42.7345 120.872 42.6883 120.903 42.6393 120.931C42.5902 120.958 42.5392 120.981 42.4857 121C42.4328 121.019 42.3784 121.033 42.323 121.043C42.2671 121.052 42.2112 121.057 42.1549 121.057H31.7771L31.7795 121.057Z" fill="black"/>
<path d="M51.5639 82.4723H57.0557C61.4408 82.4723 62.9643 83.4216 63.4817 83.9867C64.3407 84.9258 64.5024 86.9055 63.9505 89.7117C63.3306 92.853 62.1812 95.0805 60.5337 96.3311C58.8469 97.6117 56.1049 98.2608 52.3849 98.2608H48.4541L51.5653 82.4723H51.5639ZM60.9841 71.1953H41.036C40.9233 71.1953 40.8111 71.205 40.7003 71.224C40.589 71.2429 40.4802 71.2716 40.3738 71.309C40.2674 71.3469 40.1654 71.393 40.0673 71.4479C39.9691 71.5033 39.8763 71.566 39.7894 71.6369C39.7024 71.7079 39.6218 71.7856 39.5484 71.8696C39.475 71.9542 39.4095 72.0445 39.3516 72.1402C39.2938 72.236 39.2448 72.3355 39.2049 72.4395C39.1646 72.5435 39.1335 72.6504 39.1121 72.7597L29.8561 119.724C29.8425 119.794 29.8328 119.865 29.827 119.935C29.8212 120.006 29.8192 120.077 29.8212 120.148C29.8231 120.219 29.8294 120.29 29.8391 120.36C29.8493 120.431 29.8629 120.5 29.8809 120.569C29.8984 120.638 29.9203 120.706 29.9455 120.772C29.9708 120.839 29.9995 120.904 30.032 120.967C30.0646 121.031 30.101 121.092 30.1404 121.151C30.1797 121.211 30.2225 121.268 30.2681 121.323C30.3138 121.377 30.3629 121.43 30.4144 121.479C30.4659 121.529 30.5203 121.575 30.5771 121.619C30.634 121.663 30.6932 121.703 30.7544 121.74C30.8161 121.777 30.8793 121.811 30.9444 121.841C31.0095 121.871 31.0761 121.898 31.1446 121.922C31.2126 121.944 31.282 121.964 31.352 121.979C31.4225 121.995 31.4934 122.007 31.5653 122.014C31.6367 122.022 31.7086 122.026 31.7805 122.026H42.1549C42.2676 122.026 42.3798 122.017 42.4911 121.997C42.6023 121.978 42.7111 121.95 42.817 121.912C42.9234 121.875 43.0255 121.829 43.1236 121.773C43.2217 121.718 43.3145 121.656 43.4015 121.585C43.4889 121.514 43.5691 121.436 43.6425 121.352C43.7163 121.267 43.7819 121.177 43.8397 121.082C43.8975 120.986 43.9461 120.886 43.9864 120.782C44.0268 120.678 44.0579 120.571 44.0792 120.462L46.2319 109.541H53.5019C57.6129 109.541 61.074 109.099 63.7878 108.227C66.5779 107.333 69.1465 105.817 71.4187 103.721C73.2979 102.016 74.8491 100.103 76.019 98.0319C77.1889 95.9618 78.0352 93.6522 78.5244 91.1687C79.7385 85.0132 78.7523 80.084 75.5939 76.519C72.4661 72.9885 67.551 71.1982 60.986 71.1982M46.076 100.197H52.3864C56.5689 100.197 59.6845 99.4204 61.7313 97.8658C63.7781 96.3116 65.1593 93.7173 65.8769 90.0823C66.5633 86.5922 66.2509 84.1295 64.9392 82.6944C63.6275 81.2592 60.9987 80.5417 57.0581 80.5417H49.95L46.0765 100.196M60.9865 73.1313C66.9879 73.1313 71.3657 74.684 74.1179 77.7904C76.8697 80.8963 77.698 85.2323 76.6 90.7994C76.1482 93.0925 75.384 95.1889 74.3079 97.0889C73.2318 98.9885 71.8239 100.727 70.0856 102.303C68.014 104.215 65.7131 105.577 63.1805 106.389C60.6484 107.202 57.4235 107.608 53.5023 107.608H44.6166L42.1558 120.093H31.782L41.0384 73.1347H60.988" fill="white"/>
<path d="M101.347 108.571C101.054 108.571 100.776 108.443 100.591 108.22C100.405 107.997 100.328 107.704 100.385 107.42L104.479 86.6416C104.868 84.6658 104.772 83.2472 104.209 82.6477C103.864 82.2813 102.827 81.6673 99.7623 81.6673H92.3447L87.1969 107.789C87.1862 107.844 87.1706 107.897 87.1507 107.949C87.1303 108.001 87.106 108.051 87.0774 108.099C87.0482 108.147 87.0157 108.191 86.9787 108.234C86.9418 108.276 86.902 108.315 86.8583 108.35C86.8145 108.386 86.7684 108.417 86.7193 108.445C86.6702 108.472 86.6192 108.496 86.5658 108.515C86.5128 108.533 86.4584 108.548 86.403 108.557C86.3472 108.567 86.2913 108.571 86.2344 108.571H75.9422C75.8698 108.571 75.7984 108.564 75.7279 108.548C75.6575 108.533 75.5895 108.509 75.5244 108.479C75.4588 108.448 75.3976 108.412 75.3403 108.368C75.2834 108.324 75.2319 108.275 75.1858 108.22C75.1401 108.165 75.1007 108.106 75.0677 108.042C75.0352 107.978 75.0099 107.912 74.9924 107.843C74.9744 107.774 74.9647 107.703 74.9623 107.632C74.9603 107.561 74.9662 107.49 74.9798 107.42L84.2358 60.4589C84.2469 60.404 84.262 60.3511 84.2824 60.2991C84.3023 60.2466 84.3271 60.1971 84.3558 60.149C84.3849 60.1014 84.4175 60.0562 84.4544 60.0139C84.4908 59.9717 84.5311 59.9328 84.5749 59.8973C84.6181 59.8623 84.6647 59.8308 84.7138 59.8031C84.7629 59.7759 84.8139 59.7525 84.8668 59.7336C84.9203 59.7147 84.9747 59.7006 85.0301 59.6913C85.086 59.6816 85.1418 59.6768 85.1982 59.6768H95.4909C95.5628 59.6768 95.6342 59.6845 95.7052 59.7001C95.7756 59.7156 95.8436 59.7389 95.9087 59.7691C95.9743 59.7997 96.0355 59.8366 96.0924 59.8803C96.1497 59.924 96.2012 59.9736 96.2469 60.0285C96.293 60.0834 96.3324 60.1427 96.3649 60.2063C96.3975 60.27 96.4227 60.3365 96.4407 60.4055C96.4587 60.4745 96.4684 60.5444 96.4703 60.6159C96.4728 60.6873 96.4669 60.7577 96.4529 60.8277L94.2195 72.1625H102.199C108.278 72.1625 112.4 73.2192 114.802 75.3933C117.252 77.6116 118.012 81.1576 117.071 85.9362L112.765 107.79C112.754 107.844 112.739 107.898 112.719 107.95C112.698 108.002 112.674 108.052 112.645 108.1C112.616 108.147 112.583 108.192 112.547 108.235C112.51 108.277 112.47 108.316 112.426 108.351C112.383 108.387 112.337 108.418 112.287 108.446C112.238 108.473 112.187 108.496 112.134 108.515C112.081 108.534 112.027 108.548 111.971 108.558C111.915 108.567 111.859 108.572 111.803 108.572H101.347L101.347 108.571Z" fill="black"/>
<path d="M95.4914 58.7085H85.1992C85.086 58.7085 84.9737 58.7177 84.8625 58.7372C84.7512 58.7561 84.6429 58.7843 84.5365 58.8222C84.4301 58.8596 84.3281 58.9057 84.2299 58.9611C84.1318 59.016 84.039 59.0787 83.952 59.1496C83.8646 59.2206 83.7844 59.2983 83.7111 59.3828C83.6372 59.4674 83.5716 59.5572 83.5138 59.6529C83.4565 59.7487 83.4074 59.8487 83.3671 59.9527C83.3268 60.0567 83.2962 60.1635 83.2743 60.2729L74.0183 107.234C74.0047 107.304 73.995 107.374 73.9892 107.445C73.9829 107.516 73.9814 107.587 73.9833 107.658C73.9853 107.729 73.9911 107.799 74.0013 107.87C74.011 107.94 74.0251 108.01 74.0426 108.079C74.0606 108.148 74.082 108.215 74.1072 108.282C74.1325 108.348 74.1616 108.414 74.1942 108.477C74.2267 108.54 74.2627 108.602 74.3025 108.661C74.3419 108.721 74.3846 108.778 74.4303 108.832C74.476 108.887 74.525 108.94 74.5765 108.989C74.628 109.039 74.6825 109.085 74.7393 109.129C74.7961 109.172 74.8554 109.213 74.9166 109.25C74.9783 109.287 75.0415 109.321 75.1066 109.351C75.1717 109.382 75.2387 109.408 75.3067 109.431C75.3748 109.455 75.4442 109.474 75.5147 109.489C75.5846 109.505 75.6556 109.516 75.7275 109.524C75.7989 109.532 75.8708 109.536 75.9427 109.536H86.2354C86.3481 109.536 86.4604 109.527 86.5716 109.507C86.6829 109.488 86.7917 109.46 86.8976 109.422C87.004 109.385 87.1065 109.339 87.2047 109.283C87.3028 109.228 87.3951 109.165 87.4825 109.095C87.5695 109.024 87.6497 108.946 87.7235 108.861C87.7969 108.777 87.8625 108.687 87.9203 108.591C87.9781 108.496 88.0272 108.396 88.067 108.292C88.1073 108.188 88.1384 108.081 88.1598 107.972L93.1536 82.6316H99.7633C102.823 82.6316 103.465 83.2763 103.491 83.304C103.676 83.5003 103.921 84.4122 103.517 86.4551L99.4232 107.234C99.4096 107.304 99.3999 107.374 99.3941 107.445C99.3882 107.516 99.3863 107.587 99.3882 107.658C99.3902 107.729 99.3965 107.799 99.4062 107.87C99.4164 107.94 99.43 108.01 99.448 108.079C99.4655 108.148 99.4869 108.215 99.5126 108.282C99.5379 108.348 99.5665 108.414 99.5991 108.477C99.6316 108.54 99.6681 108.602 99.7074 108.661C99.7468 108.721 99.7895 108.778 99.8352 108.833C99.8809 108.887 99.9299 108.94 99.9814 108.989C100.033 109.039 100.087 109.085 100.144 109.129C100.201 109.172 100.26 109.213 100.322 109.25C100.383 109.287 100.446 109.321 100.511 109.351C100.577 109.382 100.644 109.408 100.712 109.431C100.78 109.455 100.849 109.474 100.92 109.489C100.99 109.505 101.061 109.516 101.132 109.524C101.204 109.532 101.276 109.536 101.348 109.536H111.804C111.917 109.536 112.028 109.527 112.14 109.507C112.251 109.488 112.36 109.46 112.466 109.422C112.573 109.385 112.675 109.339 112.773 109.283C112.871 109.228 112.964 109.165 113.051 109.095C113.138 109.024 113.218 108.946 113.292 108.861C113.365 108.777 113.431 108.687 113.488 108.591C113.546 108.496 113.595 108.396 113.636 108.292C113.676 108.188 113.707 108.081 113.728 107.972L118.035 86.1179C119.045 80.9885 118.181 77.1403 115.467 74.6796C112.876 72.334 108.537 71.1933 102.201 71.1933H95.4098L97.4167 61.0103C97.4308 60.9404 97.4406 60.8699 97.4464 60.799C97.4522 60.7286 97.4542 60.6576 97.4522 60.5862C97.4503 60.5153 97.444 60.4448 97.4342 60.3744C97.424 60.304 97.4104 60.2345 97.3925 60.1655C97.375 60.0965 97.3531 60.029 97.3278 59.9624C97.3026 59.8959 97.2739 59.8308 97.2414 59.7671C97.2083 59.704 97.1724 59.6423 97.133 59.583C97.0937 59.5237 97.0509 59.4664 97.0053 59.4115C96.9591 59.3566 96.9105 59.3046 96.859 59.255C96.807 59.2055 96.7531 59.1589 96.6958 59.1151C96.6389 59.0714 96.5802 59.0311 96.5185 58.9942C96.4572 58.9568 96.3936 58.9227 96.3285 58.8926C96.2634 58.8625 96.1968 58.8358 96.1288 58.8125C96.0603 58.7896 95.9913 58.7702 95.9209 58.7546C95.8504 58.7391 95.7795 58.7274 95.7081 58.7197C95.6362 58.7119 95.5643 58.708 95.4924 58.708M95.4924 60.6411L93.0322 73.1269H102.201C107.97 73.1269 111.95 74.1199 114.14 76.1031C116.331 78.0867 116.986 81.3038 116.111 85.7497L111.805 107.603H101.349L105.443 86.8243C105.909 84.4608 105.738 82.8483 104.929 81.9889C104.12 81.1289 102.398 80.6985 99.7648 80.6985H91.5373L86.2354 107.603H75.9432L85.1992 60.6411H95.4914" fill="white"/>
<path d="M133.358 99.2271C137.3 99.2271 140.243 98.5105 142.105 97.0977C143.947 95.699 145.219 93.2762 145.886 89.8953C146.508 86.7355 146.271 84.5293 145.182 83.3391C144.069 82.123 141.662 81.506 138.029 81.506H131.729L128.236 99.2276H133.357L133.358 99.2271ZM112.752 121.057C112.46 121.057 112.182 120.928 111.996 120.705C111.903 120.593 111.838 120.468 111.802 120.328C111.767 120.188 111.762 120.047 111.79 119.906L121.046 72.9443C121.057 72.8894 121.073 72.8364 121.092 72.7845C121.113 72.732 121.137 72.6824 121.166 72.6343C121.195 72.5867 121.228 72.5415 121.264 72.4993C121.301 72.457 121.342 72.4181 121.385 72.3827C121.429 72.3472 121.475 72.3161 121.524 72.2884C121.573 72.2607 121.624 72.2379 121.677 72.219C121.731 72.2 121.785 72.1859 121.841 72.1767C121.897 72.167 121.952 72.1621 122.009 72.1621H141.957C148.228 72.1621 152.894 73.8377 155.827 77.152C158.776 80.4804 159.686 85.1332 158.534 90.9811C158.063 93.3636 157.257 95.5761 156.135 97.5578C155.011 99.5409 153.526 101.376 151.721 103.013C149.559 105.007 147.112 106.454 144.455 107.305C141.84 108.145 138.482 108.572 134.474 108.572H126.39L124.084 120.275C124.073 120.329 124.057 120.383 124.038 120.435C124.018 120.487 123.993 120.537 123.964 120.585C123.935 120.633 123.903 120.678 123.866 120.72C123.829 120.762 123.789 120.801 123.745 120.837C123.701 120.872 123.655 120.904 123.606 120.931C123.557 120.959 123.506 120.982 123.453 121C123.4 121.019 123.345 121.033 123.289 121.043C123.234 121.052 123.178 121.057 123.121 121.057H112.747L112.752 121.057Z" fill="black"/>
<path d="M132.538 82.4723H138.03C142.415 82.4723 143.938 83.4216 144.456 83.9867C145.315 84.9258 145.477 86.9055 144.924 89.7112C144.304 92.8525 143.155 95.0805 141.508 96.3311C139.821 97.6117 137.079 98.2608 133.358 98.2608H129.427L132.538 82.4723ZM141.957 71.1953H122.008C121.896 71.1953 121.783 71.205 121.672 71.224C121.561 71.2429 121.453 71.2716 121.346 71.309C121.24 71.3469 121.138 71.393 121.04 71.4479C120.942 71.5033 120.849 71.566 120.762 71.6369C120.675 71.7079 120.594 71.7856 120.521 71.8696C120.447 71.9542 120.382 72.0445 120.324 72.1402C120.266 72.236 120.217 72.3355 120.177 72.4395C120.137 72.5435 120.106 72.6504 120.085 72.7597L110.828 119.724C110.814 119.794 110.804 119.865 110.798 119.935C110.793 120.006 110.791 120.077 110.793 120.148C110.795 120.219 110.801 120.29 110.811 120.36C110.821 120.431 110.834 120.5 110.852 120.569C110.87 120.638 110.891 120.706 110.917 120.772C110.942 120.839 110.971 120.904 111.003 120.967C111.036 121.031 111.072 121.092 111.112 121.151C111.151 121.211 111.194 121.268 111.24 121.323C111.285 121.377 111.334 121.43 111.386 121.479C111.437 121.529 111.492 121.575 111.549 121.619C111.605 121.663 111.665 121.703 111.726 121.74C111.788 121.777 111.851 121.811 111.916 121.841C111.981 121.871 112.047 121.898 112.116 121.922C112.184 121.944 112.253 121.964 112.323 121.979C112.394 121.995 112.465 122.007 112.536 122.014C112.608 122.022 112.68 122.026 112.752 122.026H123.126C123.239 122.026 123.351 122.017 123.462 121.998C123.574 121.978 123.682 121.95 123.788 121.912C123.895 121.875 123.997 121.829 124.095 121.773C124.193 121.718 124.286 121.656 124.373 121.585C124.46 121.514 124.541 121.436 124.614 121.352C124.688 121.267 124.753 121.177 124.811 121.082C124.868 120.986 124.918 120.886 124.958 120.782C124.998 120.678 125.029 120.571 125.051 120.462L127.203 109.541H134.473C138.584 109.541 142.045 109.099 144.759 108.227C147.549 107.333 150.117 105.817 152.39 103.72C154.27 102.016 155.817 100.103 156.99 98.0319C158.163 95.9618 159.006 93.6522 159.496 91.1687C160.709 85.0127 159.723 80.0835 156.565 76.519C153.437 72.9885 148.522 71.1982 141.957 71.1982M127.047 100.197H133.357C137.54 100.197 140.655 99.4204 142.702 97.8658C144.749 96.3116 146.131 93.7173 146.848 90.0823C147.535 86.5922 147.222 84.1295 145.91 82.6944C144.598 81.2592 141.97 80.5417 138.029 80.5417H130.921L127.048 100.196M141.957 73.1313C147.959 73.1313 152.337 74.684 155.089 77.7904C157.841 80.8963 158.669 85.2323 157.571 90.7994C157.119 93.0925 156.355 95.1889 155.279 97.0889C154.203 98.9885 152.795 100.727 151.057 102.303C148.985 104.215 146.684 105.577 144.152 106.389C141.619 107.202 138.394 107.608 134.474 107.608H125.588L123.127 120.093H112.753L122.009 73.1313H141.958" fill="white"/>
<defs>
<radialGradient id="paint0_radial_201_261" cx="0" cy="0" r="1" gradientUnits="userSpaceOnUse" gradientTransform="translate(57.5431 63.4617) scale(118.628 116.98)">
<stop stop-color="#AEB2D5"/>
<stop offset="0.25" stop-color="#AEB2D5"/>
<stop offset="0.296875" stop-color="#AEB2D5"/>
<stop offset="0.300781" stop-color="#ADB1D4"/>
<stop offset="0.304688" stop-color="#ACB0D4"/>
<stop offset="0.308594" stop-color="#ACB0D3"/>
<stop offset="0.3125" stop-color="#ABAFD2"/>
<stop offset="0.316406" stop-color="#AAAED2"/>
<stop offset="0.320312" stop-color="#A9ADD1"/>
<stop offset="0.324219" stop-color="#A8ACD1"/>
<stop offset="0.328125" stop-color="#A7ABD0"/>
<stop offset="0.332031" stop-color="#A6AACF"/>
<stop offset="0.335938" stop-color="#A5A9CF"/>
<stop offset="0.339844" stop-color="#A4A9CE"/>
<stop offset="0.34375" stop-color="#A4A8CD"/>
<stop offset="0.347656" stop-color="#A3A7CD"/>
<stop offset="0.351562" stop-color="#A2A6CC"/>
<stop offset="0.355469" stop-color="#A1A5CB"/>
<stop offset="0.359375" stop-color="#A0A4CB"/>
<stop offset="0.363281" stop-color="#9FA3CA"/>
<stop offset="0.367188" stop-color="#9EA2C9"/>
<stop offset="0.371094" stop-color="#9DA1C9"/>
<stop offset="0.375" stop-color="#9CA1C8"/>
<stop offset="0.378906" stop-color="#9CA0C7"/>
<stop offset="0.382812" stop-color="#9B9FC7"/>
<stop offset="0.386719" stop-color="#9A9EC6"/>
<stop offset="0.390625" stop-color="#999DC5"/>
<stop offset="0.394531" stop-color="#989CC5"/>
<stop offset="0.398438" stop-color="#979BC4"/>
<stop offset="0.402344" stop-color="#969AC3"/>
<stop offset="0.40625" stop-color="#9599C3"/>
<stop offset="0.410156" stop-color="#9499C2"/>
<stop offset="0.414062" stop-color="#9498C1"/>
<stop offset="0.417969" stop-color="#9397C1"/>
<stop offset="0.421875" stop-color="#9296C0"/>
<stop offset="0.425781" stop-color="#9195BF"/>
<stop offset="0.429688" stop-color="#9094BF"/>
<stop offset="0.433594" stop-color="#8F93BE"/>
<stop offset="0.4375" stop-color="#8E92BD"/>
<stop offset="0.441406" stop-color="#8D91BD"/>
<stop offset="0.445312" stop-color="#8D91BC"/>
<stop offset="0.449219" stop-color="#8C90BB"/>
<stop offset="0.453125" stop-color="#8B8FBB"/>
<stop offset="0.457031" stop-color="#8A8EBA"/>
<stop offset="0.460938" stop-color="#898DB9"/>
<stop offset="0.464844" stop-color="#888CB9"/>
<stop offset="0.46875" stop-color="#878BB8"/>
<stop offset="0.472656" stop-color="#868AB7"/>
<stop offset="0.476562" stop-color="#858AB7"/>
<stop offset="0.480469" stop-color="#8589B6"/>
<stop offset="0.484375" stop-color="#8488B5"/>
<stop offset="0.488281" stop-color="#8387B5"/>
<stop offset="0.492188" stop-color="#8286B4"/>
<stop offset="0.496094" stop-color="#8185B3"/>
<stop offset="0.5" stop-color="#8084B3"/>
<stop offset="0.503906" stop-color="#7F83B2"/>
<stop offset="0.507812" stop-color="#7E82B1"/>
<stop offset="0.511719" stop-color="#7D82B1"/>
<stop offset="0.515625" stop-color="#7D81B0"/>
<stop offset="0.519531" stop-color="#7C80B0"/>
<stop offset="0.523438" stop-color="#7B7FAF"/>
<stop offset="0.527344" stop-color="#7A7EAE"/>
<stop offset="0.53125" stop-color="#797DAE"/>
<stop offset="0.535156" stop-color="#787CAD"/>
<stop offset="0.539062" stop-color="#777BAC"/>
<stop offset="0.542969" stop-color="#767AAC"/>
<stop offset="0.546875" stop-color="#767AAB"/>
<stop offset="0.550781" stop-color="#7579AA"/>
<stop offset="0.554688" stop-color="#7478AA"/>
<stop offset="0.558594" stop-color="#7377A9"/>
<stop offset="0.5625" stop-color="#7276A8"/>
<stop offset="0.566406" stop-color="#7175A8"/>
<stop offset="0.570312" stop-color="#7074A7"/>
<stop offset="0.574219" stop-color="#6F73A6"/>
<stop offset="0.578125" stop-color="#6E73A6"/>
<stop offset="0.582031" stop-color="#6E72A5"/>
<stop offset="0.585938" stop-color="#6D71A4"/>
<stop offset="0.589844" stop-color="#6C70A4"/>
<stop offset="0.59375" stop-color="#6B6FA3"/>
<stop offset="0.597656" stop-color="#6A6EA2"/>
<stop offset="0.601562" stop-color="#696DA2"/>
<stop offset="0.605469" stop-color="#686CA1"/>
<stop offset="0.609375" stop-color="#676BA0"/>
<stop offset="0.613281" stop-color="#666BA0"/>
<stop offset="0.617188" stop-color="#666A9F"/>
<stop offset="0.621094" stop-color="#65699E"/>
<stop offset="0.625" stop-color="#64689E"/>
<stop offset="0.628906" stop-color="#63679D"/>
<stop offset="0.632812" stop-color="#62669C"/>
<stop offset="0.636719" stop-color="#61659C"/>
<stop offset="0.640625" stop-color="#60649B"/>
<stop offset="0.644531" stop-color="#5F639A"/>
<stop offset="0.648438" stop-color="#5E639A"/>
<stop offset="0.652344" stop-color="#5E6299"/>
<stop offset="0.65625" stop-color="#5D6198"/>
<stop offset="0.660156" stop-color="#5C6098"/>
<stop offset="0.664062" stop-color="#5B5F97"/>
<stop offset="0.667969" stop-color="#5A5E96"/>
<stop offset="0.671875" stop-color="#595D96"/>
<stop offset="0.675781" stop-color="#585C95"/>
<stop offset="0.679688" stop-color="#575B94"/>
<stop offset="0.683594" stop-color="#575B94"/>
<stop offset="0.6875" stop-color="#565A93"/>
<stop offset="0.691406" stop-color="#555992"/>
<stop offset="0.695312" stop-color="#545892"/>
<stop offset="0.699219" stop-color="#535791"/>
<stop offset="0.703125" stop-color="#525691"/>
<stop offset="0.707031" stop-color="#515590"/>
<stop offset="0.710938" stop-color="#50548F"/>
<stop offset="0.714844" stop-color="#4F548F"/>
<stop offset="0.71875" stop-color="#4F538E"/>
<stop offset="0.722656" stop-color="#4E528D"/>
<stop offset="0.726562" stop-color="#4D518D"/>
<stop offset="0.730469" stop-color="#4C508C"/>
<stop offset="0.734375" stop-color="#4B4F8B"/>
<stop offset="0.738281" stop-color="#4A4E8B"/>
<stop offset="0.742188" stop-color="#494D8A"/>
<stop offset="0.746094" stop-color="#484C89"/>
<stop offset="1" stop-color="#484C89"/>
</radialGradient>
</defs>
</svg>
